<svg width="245" height="36" viewBox="0 0 245 36" fill="none" xmlns="http://www.w3.org/2000/svg">
<path d="M0.5 1.195H5.81V34H0.5V1.195ZM43.6712 35.215L18.5162 10.915L20.0912 11.545L20.1812 34H14.8262V0.0699996H15.0512L39.8012 24.37L38.5862 23.965L38.4962 1.195H43.8062V35.215H43.6712ZM77.0949 31.435C76.6449 31.765 75.9399 32.17 74.9799 32.65C74.0199 33.13 72.8799 33.55 71.5599 33.91C70.2399 34.24 68.7999 34.39 67.2399 34.36C64.6599 34.33 62.3499 33.88 60.3099 33.01C58.2999 32.11 56.5749 30.91 55.1349 29.41C53.7249 27.88 52.6449 26.14 51.8949 24.19C51.1449 22.21 50.7699 20.095 50.7699 17.845C50.7699 15.385 51.1599 13.12 51.9399 11.05C52.7499 8.98 53.8599 7.18 55.2699 5.65C56.7099 4.12 58.4199 2.935 60.3999 2.095C62.3799 1.255 64.5399 0.834998 66.8799 0.834998C68.9499 0.834998 70.8099 1.12 72.4599 1.69C74.1099 2.26 75.4899 2.89 76.5999 3.58L74.4849 8.575C73.6449 7.975 72.5949 7.39 71.3349 6.82C70.0749 6.25 68.6499 5.965 67.0599 5.965C65.1399 5.965 63.3549 6.49 61.7049 7.54C60.0849 8.56 58.7799 9.94 57.7899 11.68C56.7999 13.42 56.3049 15.385 56.3049 17.575C56.3049 19.825 56.7549 21.835 57.6549 23.605C58.5549 25.345 59.8299 26.725 61.4799 27.745C63.1599 28.735 65.1099 29.23 67.3299 29.23C69.0399 29.23 70.5249 28.975 71.7849 28.465C73.0749 27.925 74.0949 27.325 74.8449 26.665L77.0949 31.435ZM84.084 1.195H89.394V34H84.084V1.195ZM96.0702 1.195H118.03V6.325H109.57V34H104.26V6.325H96.0702V1.195ZM133.241 23.38L121.136 1.195H127.706L136.886 18.835L135.266 18.925L144.311 1.195H150.836L138.596 23.38V34H133.241V23.38ZM165.689 1.195C169.439 1.195 172.364 2.14 174.464 4.03C176.564 5.89 177.614 8.47 177.614 11.77C177.614 13.09 177.404 14.395 176.984 15.685C176.594 16.975 175.964 18.16 175.094 19.24C174.254 20.29 173.114 21.13 171.674 21.76C170.264 22.39 168.524 22.705 166.454 22.705H161.684V34H156.374V1.195H165.689ZM166.409 17.53C167.549 17.53 168.509 17.335 169.289 16.945C170.069 16.555 170.669 16.075 171.089 15.505C171.539 14.905 171.854 14.275 172.034 13.615C172.214 12.955 172.304 12.385 172.304 11.905C172.304 11.395 172.214 10.825 172.034 10.195C171.884 9.535 171.599 8.92 171.179 8.35C170.759 7.78 170.174 7.3 169.424 6.91C168.674 6.52 167.729 6.325 166.589 6.325H161.684V17.53H166.409ZM193.242 1.195C195.702 1.195 197.832 1.615 199.632 2.455C201.462 3.295 202.872 4.495 203.862 6.055C204.882 7.615 205.392 9.52 205.392 11.77C205.392 13.09 205.197 14.395 204.807 15.685C204.417 16.975 203.772 18.145 202.872 19.195C202.002 20.245 200.847 21.085 199.407 21.715C197.967 22.345 196.182 22.66 194.052 22.66H189.282V34H183.972V1.195H193.242ZM193.962 17.53C195.522 17.53 196.722 17.23 197.562 16.63C198.432 16 199.032 15.25 199.362 14.38C199.722 13.51 199.902 12.7 199.902 11.95C199.902 11.44 199.812 10.87 199.632 10.24C199.452 9.61 199.152 8.995 198.732 8.395C198.312 7.795 197.727 7.3 196.977 6.91C196.257 6.52 195.327 6.325 194.187 6.325H189.282V17.53H193.962ZM199.677 20.725L208.047 34H201.837L193.332 20.86L199.677 20.725ZM211.258 17.62C211.258 15.37 211.693 13.24 212.563 11.23C213.433 9.19 214.633 7.405 216.163 5.875C217.693 4.315 219.463 3.085 221.473 2.185C223.513 1.285 225.673 0.834998 227.953 0.834998C230.263 0.834998 232.423 1.285 234.433 2.185C236.473 3.085 238.273 4.315 239.833 5.875C241.393 7.405 242.608 9.19 243.478 11.23C244.348 13.24 244.783 15.37 244.783 17.62C244.783 19.96 244.348 22.135 243.478 24.145C242.608 26.155 241.393 27.94 239.833 29.5C238.273 31.03 236.473 32.23 234.433 33.1C232.423 33.94 230.263 34.36 227.953 34.36C225.673 34.36 223.513 33.94 221.473 33.1C219.463 32.23 217.693 31.045 216.163 29.545C214.633 28.015 213.433 26.23 212.563 24.19C211.693 22.15 211.258 19.96 211.258 17.62ZM216.748 17.665C216.748 19.795 217.243 21.745 218.233 23.515C219.253 25.255 220.618 26.65 222.328 27.7C224.068 28.72 226.003 29.23 228.133 29.23C230.233 29.23 232.123 28.72 233.803 27.7C235.483 26.65 236.818 25.255 237.808 23.515C238.798 21.745 239.293 19.78 239.293 17.62C239.293 15.46 238.783 13.495 237.763 11.725C236.773 9.955 235.423 8.56 233.713 7.54C232.003 6.49 230.098 5.965 227.998 5.965C225.898 5.965 223.993 6.49 222.283 7.54C220.573 8.59 219.223 10 218.233 11.77C217.243 13.54 216.748 15.505 216.748 17.665Z" fill="#87D5F7"/>
<path d="M0.5 1.195H5.81V34H0.5V1.195ZM43.6712 35.215L18.5162 10.915L20.0912 11.545L20.1812 34H14.8262V0.0699996H15.0512L39.8012 24.37L38.5862 23.965L38.4962 1.195H43.8062V35.215H43.6712ZM77.0949 31.435C76.6449 31.765 75.9399 32.17 74.9799 32.65C74.0199 33.13 72.8799 33.55 71.5599 33.91C70.2399 34.24 68.7999 34.39 67.2399 34.36C64.6599 34.33 62.3499 33.88 60.3099 33.01C58.2999 32.11 56.5749 30.91 55.1349 29.41C53.7249 27.88 52.6449 26.14 51.8949 24.19C51.1449 22.21 50.7699 20.095 50.7699 17.845C50.7699 15.385 51.1599 13.12 51.9399 11.05C52.7499 8.98 53.8599 7.18 55.2699 5.65C56.7099 4.12 58.4199 2.935 60.3999 2.095C62.3799 1.255 64.5399 0.834998 66.8799 0.834998C68.9499 0.834998 70.8099 1.12 72.4599 1.69C74.1099 2.26 75.4899 2.89 76.5999 3.58L74.4849 8.575C73.6449 7.975 72.5949 7.39 71.3349 6.82C70.0749 6.25 68.6499 5.965 67.0599 5.965C65.1399 5.965 63.3549 6.49 61.7049 7.54C60.0849 8.56 58.7799 9.94 57.7899 11.68C56.7999 13.42 56.3049 15.385 56.3049 17.575C56.3049 19.825 56.7549 21.835 57.6549 23.605C58.5549 25.345 59.8299 26.725 61.4799 27.745C63.1599 28.735 65.1099 29.23 67.3299 29.23C69.0399 29.23 70.5249 28.975 71.7849 28.465C73.0749 27.925 74.0949 27.325 74.8449 26.665L77.0949 31.435ZM84.084 1.195H89.394V34H84.084V1.195ZM96.0702 1.195H118.03V6.325H109.57V34H104.26V6.325H96.0702V1.195ZM133.241 23.38L121.136 1.195H127.706L136.886 18.835L135.266 18.925L144.311 1.195H150.836L138.596 23.38V34H133.241V23.38ZM165.689 1.195C169.439 1.195 172.364 2.14 174.464 4.03C176.564 5.89 177.614 8.47 177.614 11.77C177.614 13.09 177.404 14.395 176.984 15.685C176.594 16.975 175.964 18.16 175.094 19.24C174.254 20.29 173.114 21.13 171.674 21.76C170.264 22.39 168.524 22.705 166.454 22.705H161.684V34H156.374V1.195H165.689ZM166.409 17.53C167.549 17.53 168.509 17.335 169.289 16.945C170.069 16.555 170.669 16.075 171.089 15.505C171.539 14.905 171.854 14.275 172.034 13.615C172.214 12.955 172.304 12.385 172.304 11.905C172.304 11.395 172.214 10.825 172.034 10.195C171.884 9.535 171.599 8.92 171.179 8.35C170.759 7.78 170.174 7.3 169.424 6.91C168.674 6.52 167.729 6.325 166.589 6.325H161.684V17.53H166.409ZM193.242 1.195C195.702 1.195 197.832 1.615 199.632 2.455C201.462 3.295 202.872 4.495 203.862 6.055C204.882 7.615 205.392 9.52 205.392 11.77C205.392 13.09 205.197 14.395 204.807 15.685C204.417 16.975 203.772 18.145 202.872 19.195C202.002 20.245 200.847 21.085 199.407 21.715C197.967 22.345 196.182 22.66 194.052 22.66H189.282V34H183.972V1.195H193.242ZM193.962 17.53C195.522 17.53 196.722 17.23 197.562 16.63C198.432 16 199.032 15.25 199.362 14.38C199.722 13.51 199.902 12.7 199.902 11.95C199.902 11.44 199.812 10.87 199.632 10.24C199.452 9.61 199.152 8.995 198.732 8.395C198.312 7.795 197.727 7.3 196.977 6.91C196.257 6.52 195.327 6.325 194.187 6.325H189.282V17.53H193.962ZM199.677 20.725L208.047 34H201.837L193.332 20.86L199.677 20.725ZM211.258 17.62C211.258 15.37 211.693 13.24 212.563 11.23C213.433 9.19 214.633 7.405 216.163 5.875C217.693 4.315 219.463 3.085 221.473 2.185C223.513 1.285 225.673 0.834998 227.953 0.834998C230.263 0.834998 232.423 1.285 234.433 2.185C236.473 3.085 238.273 4.315 239.833 5.875C241.393 7.405 242.608 9.19 243.478 11.23C244.348 13.24 244.783 15.37 244.783 17.62C244.783 19.96 244.348 22.135 243.478 24.145C242.608 26.155 241.393 27.94 239.833 29.5C238.273 31.03 236.473 32.23 234.433 33.1C232.423 33.94 230.263 34.36 227.953 34.36C225.673 34.36 223.513 33.94 221.473 33.1C219.463 32.23 217.693 31.045 216.163 29.545C214.633 28.015 213.433 26.23 212.563 24.19C211.693 22.15 211.258 19.96 211.258 17.62ZM216.748 17.665C216.748 19.795 217.243 21.745 218.233 23.515C219.253 25.255 220.618 26.65 222.328 27.7C224.068 28.72 226.003 29.23 228.133 29.23C230.233 29.23 232.123 28.72 233.803 27.7C235.483 26.65 236.818 25.255 237.808 23.515C238.798 21.745 239.293 19.78 239.293 17.62C239.293 15.46 238.783 13.495 237.763 11.725C236.773 9.955 235.423 8.56 233.713 7.54C232.003 6.49 230.098 5.965 227.998 5.965C225.898 5.965 223.993 6.49 222.283 7.54C220.573 8.59 219.223 10 218.233 11.77C217.243 13.54 216.748 15.505 216.748 17.665Z" fill="black" fill-opacity="0.2"/>
</svg>
